# MagicaVoxel @ Ephtracy

# group
o 

# material
mtllib player-1.mtl
usemtl palette

# normals
vn 1 0 0
vn -1 0 0
vn 0 0 1
vn 0 0 -1
vn 0 -1 0
vn 0 1 0

# texcoords
vt 0.287109 0.5
vt 0.943359 0.5
vt 0.947266 0.5
vt 0.970703 0.5

# verts
v 0.9 1.2 0.4
v 0.9 1.2 -0.2
v 0.9 1.3 0.4
v 0.9 1.3 -0.2
v 0.8 0 0.5
v 0.8 0 -0.2
v 0.8 0.5 0.5
v 0.8 0.5 0.4
v 0.8 1.2 0.5
v 0.8 1.2 0.4
v 0.8 1.2 -0.2
v 0.8 1.2 -0.3
v 0.8 1.3 0.5
v 0.8 1.3 0.4
v 0.8 1.3 -0.2
v 0.8 1.3 -0.3
v 0.8 1.7 0.4
v 0.8 1.7 -0.2
v 0.7 1.7 0.4
v 0.7 1.7 -0.2
v 0.7 1.8 0.4
v 0.7 1.8 -0.2
v 0.4 0.1 0.6
v 0.4 0.1 0.5
v 0.4 0.5 0.6
v 0.4 0.5 0.5
v 0.3 0 0.5
v 0.3 0 -0.2
v 0.3 0.1 0.5
v 0.3 0.1 0.3
v 0.3 0.5 0.4
v 0.3 0.5 0.3
v 0.3 1.2 0.5
v 0.3 1.2 0.4
v 0.3 1.2 -0.2
v 0.3 1.2 -0.3
v 0.3 1.3 0.5
v 0.3 1.3 0.4
v 0.3 1.3 -0.2
v 0.3 1.3 -0.3
v 0.3 1.8 0.4
v 0.3 1.8 -0.2
v 0.2 0.1 0.6
v 0.2 0.1 0.3
v 0.2 0.5 0.6
v 0.2 0.5 0.3
v 0.4 0.1 0.6
v 0.4 0.5 0.6
v 0.2 0.1 0.6
v 0.2 0.5 0.6
v 0.8 0 0.5
v 0.8 0.5 0.5
v 0.8 1.2 0.5
v 0.8 1.3 0.5
v 0.4 0.1 0.5
v 0.4 0.5 0.5
v 0.3 0 0.5
v 0.3 0.1 0.5
v 0.3 1.2 0.5
v 0.3 1.3 0.5
v 0.9 1.2 0.4
v 0.9 1.3 0.4
v 0.8 0.5 0.4
v 0.8 1.2 0.4
v 0.8 1.3 0.4
v 0.8 1.7 0.4
v 0.7 1.7 0.4
v 0.7 1.8 0.4
v 0.3 0.5 0.4
v 0.3 1.2 0.4
v 0.3 1.3 0.4
v 0.3 1.8 0.4
v 0.3 0.1 0.3
v 0.3 0.5 0.3
v 0.2 0.1 0.3
v 0.2 0.5 0.3
v 0.9 1.2 -0.2
v 0.9 1.3 -0.2
v 0.8 0 -0.2
v 0.8 1.2 -0.2
v 0.8 1.3 -0.2
v 0.8 1.7 -0.2
v 0.7 1.7 -0.2
v 0.7 1.8 -0.2
v 0.3 0 -0.2
v 0.3 1.2 -0.2
v 0.3 1.3 -0.2
v 0.3 1.8 -0.2
v 0.8 1.2 -0.3
v 0.8 1.3 -0.3
v 0.3 1.2 -0.3
v 0.3 1.3 -0.3
v 0.8 0 0.5
v 0.3 0 0.5
v 0.8 0 -0.2
v 0.3 0 -0.2
v 0.4 0.1 0.6
v 0.2 0.1 0.6
v 0.4 0.1 0.5
v 0.3 0.1 0.5
v 0.3 0.1 0.3
v 0.2 0.1 0.3
v 0.8 1.2 0.5
v 0.3 1.2 0.5
v 0.9 1.2 0.4
v 0.8 1.2 0.4
v 0.3 1.2 0.4
v 0.9 1.2 -0.2
v 0.8 1.2 -0.2
v 0.3 1.2 -0.2
v 0.8 1.2 -0.3
v 0.3 1.2 -0.3
v 0.4 0.5 0.6
v 0.2 0.5 0.6
v 0.8 0.5 0.5
v 0.4 0.5 0.5
v 0.8 0.5 0.4
v 0.3 0.5 0.4
v 0.3 0.5 0.3
v 0.2 0.5 0.3
v 0.8 1.3 0.5
v 0.3 1.3 0.5
v 0.9 1.3 0.4
v 0.8 1.3 0.4
v 0.3 1.3 0.4
v 0.9 1.3 -0.2
v 0.8 1.3 -0.2
v 0.3 1.3 -0.2
v 0.8 1.3 -0.3
v 0.3 1.3 -0.3
v 0.8 1.7 0.4
v 0.7 1.7 0.4
v 0.8 1.7 -0.2
v 0.7 1.7 -0.2
v 0.7 1.8 0.4
v 0.3 1.8 0.4
v 0.7 1.8 -0.2
v 0.3 1.8 -0.2

# faces
f 1/3/1 2/3/1 3/3/1
f 3/3/1 2/3/1 4/3/1
f 5/4/1 6/4/1 7/4/1
f 7/4/1 6/4/1 8/4/1
f 8/4/1 6/4/1 10/4/1
f 10/4/1 6/4/1 11/4/1
f 9/3/1 10/3/1 13/3/1
f 13/3/1 10/3/1 14/3/1
f 11/3/1 12/3/1 15/3/1
f 15/3/1 12/3/1 16/3/1
f 14/2/1 15/2/1 17/2/1
f 17/2/1 15/2/1 18/2/1
f 19/2/1 20/2/1 21/2/1
f 21/2/1 20/2/1 22/2/1
f 23/4/1 24/4/1 25/4/1
f 25/4/1 24/4/1 26/4/1
f 29/4/2 28/4/2 27/4/2
f 30/4/2 28/4/2 29/4/2
f 32/4/2 28/4/2 30/4/2
f 34/4/2 32/4/2 31/4/2
f 35/4/2 28/4/2 32/4/2
f 35/4/2 32/4/2 34/4/2
f 37/3/2 34/3/2 33/3/2
f 37/3/2 36/3/2 35/3/2
f 37/3/2 35/3/2 34/3/2
f 38/3/2 36/3/2 37/3/2
f 39/3/2 36/3/2 38/3/2
f 40/3/2 36/3/2 39/3/2
f 41/2/2 39/2/2 38/2/2
f 42/2/2 39/2/2 41/2/2
f 45/4/2 44/4/2 43/4/2
f 46/4/2 44/4/2 45/4/2
f 47/4/3 48/4/3 49/4/3
f 49/4/3 48/4/3 50/4/3
f 51/4/3 52/4/3 55/4/3
f 55/4/3 52/4/3 56/4/3
f 51/4/3 55/4/3 57/4/3
f 57/4/3 55/4/3 58/4/3
f 53/3/3 54/3/3 59/3/3
f 59/3/3 54/3/3 60/3/3
f 61/3/3 62/3/3 64/3/3
f 64/3/3 62/3/3 65/3/3
f 65/2/3 66/2/3 67/2/3
f 63/4/3 64/4/3 69/4/3
f 69/4/3 64/4/3 70/4/3
f 67/2/3 68/2/3 71/2/3
f 65/2/3 67/2/3 71/2/3
f 71/2/3 68/2/3 72/2/3
f 75/4/4 74/4/4 73/4/4
f 76/4/4 74/4/4 75/4/4
f 80/3/4 78/3/4 77/3/4
f 81/3/4 78/3/4 80/3/4
f 83/2/4 82/2/4 81/2/4
f 85/4/4 80/4/4 79/4/4
f 86/4/4 80/4/4 85/4/4
f 87/2/4 84/2/4 83/2/4
f 87/2/4 83/2/4 81/2/4
f 88/2/4 84/2/4 87/2/4
f 91/3/4 90/3/4 89/3/4
f 92/3/4 90/3/4 91/3/4
f 93/4/5 94/4/5 95/4/5
f 95/4/5 94/4/5 96/4/5
f 97/4/5 98/4/5 99/4/5
f 99/4/5 98/4/5 100/4/5
f 100/4/5 98/4/5 101/4/5
f 101/4/5 98/4/5 102/4/5
f 103/3/5 104/3/5 106/3/5
f 106/3/5 104/3/5 107/3/5
f 105/3/5 106/3/5 108/3/5
f 108/3/5 106/3/5 109/3/5
f 109/3/5 110/3/5 111/3/5
f 111/3/5 110/3/5 112/3/5
f 116/4/6 114/4/6 113/4/6
f 117/4/6 116/4/6 115/4/6
f 118/4/6 114/4/6 116/4/6
f 118/4/6 116/4/6 117/4/6
f 119/4/6 114/4/6 118/4/6
f 120/4/6 114/4/6 119/4/6
f 124/3/6 122/3/6 121/3/6
f 125/3/6 122/3/6 124/3/6
f 126/3/6 124/3/6 123/3/6
f 127/3/6 124/3/6 126/3/6
f 129/3/6 128/3/6 127/3/6
f 130/3/6 128/3/6 129/3/6
f 133/2/6 132/2/6 131/2/6
f 134/2/6 132/2/6 133/2/6
f 137/2/6 136/2/6 135/2/6
f 138/2/6 136/2/6 137/2/6
