# MagicaVoxel @ Ephtracy

# group
o 

# material
mtllib player-2.mtl
usemtl palette

# normals
vn -1 0 0
vn 1 0 0
vn 0 0 1
vn 0 0 -1
vn 0 -1 0
vn 0 1 0

# texcoords
vt 0.908203 0.5
vt 0.912109 0.5
vt 0.939453 0.5
vt 0.970703 0.5

# verts
v 0 0.5 0.4
v 0 0.5 -0.5
v 0 1 -0.3
v 0 1 -0.5
v 0 1.1 0.3
v 0 1.1 -0.3
v 0 1.2 0.6
v 0 1.2 0.4
v 0 1.2 0.3
v 0 1.4 0.6
v 0 1.4 -0.5
v 0.1 0.9 0.5
v 0.1 0.9 0.4
v 0.1 1 0.5
v 0.1 1 0.4
v 0.2 0.8 0.5
v 0.2 0.8 0.4
v 0.2 0.9 0.5
v 0.2 0.9 0.4
v 0.5 1.1 0.6
v 0.5 1.1 0.4
v 0.5 1.2 0.6
v 0.5 1.2 0.4
v 0.6 0.9 0.5
v 0.6 0.9 0.4
v 0.6 1 0.5
v 0.6 1 0.4
v 0.7 0.8 0.5
v 0.7 0.8 0.4
v 0.7 0.9 0.5
v 0.7 0.9 0.4
v 0.7 1 0.6
v 0.7 1 0.5
v 0.7 1 0.4
v 0.7 1.1 0.6
v 0.7 1.1 0.4
v 0.3 0.8 0.5
v 0.3 0.8 0.4
v 0.3 0.9 0.5
v 0.3 0.9 0.4
v 0.4 0.9 0.5
v 0.4 0.9 0.4
v 0.4 1 0.5
v 0.4 1 0.4
v 0.8 0.8 0.5
v 0.8 0.8 0.4
v 0.8 0.9 0.5
v 0.8 0.9 0.4
v 0.9 0.9 0.5
v 0.9 0.9 0.4
v 0.9 1 0.6
v 0.9 1 0.5
v 0.9 1 0.4
v 0.9 1.1 0.6
v 0.9 1.1 0.4
v 1 0.5 0.4
v 1 0.5 -0.5
v 1 0.8 -0.1
v 1 0.8 -0.5
v 1 0.9 0.1
v 1 0.9 -0.1
v 1 1 0.3
v 1 1 0.1
v 1 1.1 0.6
v 1 1.1 0.4
v 1 1.1 0.3
v 1 1.4 0.6
v 1 1.4 -0.5
v 0 1.2 0.6
v 0 1.4 0.6
v 0.5 1.1 0.6
v 0.5 1.2 0.6
v 0.7 1 0.6
v 0.7 1.1 0.6
v 0.9 1 0.6
v 0.9 1.1 0.6
v 1 1.1 0.6
v 1 1.4 0.6
v 0.1 0.9 0.5
v 0.1 1 0.5
v 0.2 0.8 0.5
v 0.2 0.9 0.5
v 0.3 0.8 0.5
v 0.3 0.9 0.5
v 0.4 0.9 0.5
v 0.4 1 0.5
v 0.6 0.9 0.5
v 0.6 1 0.5
v 0.7 0.8 0.5
v 0.7 0.9 0.5
v 0.7 1 0.5
v 0.8 0.8 0.5
v 0.8 0.9 0.5
v 0.9 0.9 0.5
v 0.9 1 0.5
v 0 0.5 0.4
v 0 1.2 0.4
v 0.1 0.9 0.4
v 0.1 1 0.4
v 0.2 0.8 0.4
v 0.2 0.9 0.4
v 0.3 0.8 0.4
v 0.3 0.9 0.4
v 0.4 0.9 0.4
v 0.4 1 0.4
v 0.5 1.1 0.4
v 0.5 1.2 0.4
v 0.6 0.9 0.4
v 0.6 1 0.4
v 0.7 0.8 0.4
v 0.7 0.9 0.4
v 0.7 1 0.4
v 0.7 1.1 0.4
v 0.8 0.8 0.4
v 0.8 0.9 0.4
v 0.9 0.9 0.4
v 0.9 1 0.4
v 0.9 1.1 0.4
v 1 0.5 0.4
v 1 1.1 0.4
v 0 0.5 -0.5
v 0 1 -0.5
v 0 1.4 -0.5
v 0.3 0.9 -0.5
v 0.3 1 -0.5
v 0.5 0.8 -0.5
v 0.5 0.9 -0.5
v 1 0.5 -0.5
v 1 0.8 -0.5
v 1 1.4 -0.5
v 0 0.5 0.4
v 1 0.5 0.4
v 0 0.5 -0.5
v 1 0.5 -0.5
v 0.2 0.8 0.5
v 0.3 0.8 0.5
v 0.7 0.8 0.5
v 0.8 0.8 0.5
v 0.2 0.8 0.4
v 0.3 0.8 0.4
v 0.7 0.8 0.4
v 0.8 0.8 0.4
v 0.1 0.9 0.5
v 0.2 0.9 0.5
v 0.3 0.9 0.5
v 0.4 0.9 0.5
v 0.6 0.9 0.5
v 0.7 0.9 0.5
v 0.8 0.9 0.5
v 0.9 0.9 0.5
v 0.1 0.9 0.4
v 0.2 0.9 0.4
v 0.3 0.9 0.4
v 0.4 0.9 0.4
v 0.6 0.9 0.4
v 0.7 0.9 0.4
v 0.8 0.9 0.4
v 0.9 0.9 0.4
v 0.7 1 0.6
v 0.9 1 0.6
v 0.7 1 0.5
v 0.9 1 0.5
v 0.5 1.1 0.6
v 0.7 1.1 0.6
v 0.9 1.1 0.6
v 1 1.1 0.6
v 0.5 1.1 0.4
v 0.7 1.1 0.4
v 0.9 1.1 0.4
v 1 1.1 0.4
v 0 1.2 0.6
v 0.5 1.2 0.6
v 0 1.2 0.4
v 0.5 1.2 0.4
v 0.1 1 0.5
v 0.4 1 0.5
v 0.6 1 0.5
v 0.7 1 0.5
v 0.1 1 0.4
v 0.4 1 0.4
v 0.6 1 0.4
v 0.7 1 0.4
v 0 1.4 0.6
v 1 1.4 0.6
v 0 1.4 -0.5
v 1 1.4 -0.5

# faces
f 3/4/1 2/4/1 1/4/1
f 4/4/1 2/4/1 3/4/1
f 5/4/1 3/4/1 1/4/1
f 6/3/1 4/3/1 3/3/1
f 6/4/1 3/4/1 5/4/1
f 8/4/1 5/4/1 1/4/1
f 9/3/1 6/3/1 5/3/1
f 9/4/1 5/4/1 8/4/1
f 10/3/1 8/3/1 7/3/1
f 10/3/1 9/3/1 8/3/1
f 11/3/1 4/3/1 6/3/1
f 11/3/1 9/3/1 10/3/1
f 11/3/1 6/3/1 9/3/1
f 14/2/1 13/2/1 12/2/1
f 15/2/1 13/2/1 14/2/1
f 18/1/1 17/1/1 16/1/1
f 19/1/1 17/1/1 18/1/1
f 22/3/1 21/3/1 20/3/1
f 23/3/1 21/3/1 22/3/1
f 26/2/1 25/2/1 24/2/1
f 27/2/1 25/2/1 26/2/1
f 30/1/1 29/1/1 28/1/1
f 31/1/1 29/1/1 30/1/1
f 35/3/1 33/3/1 32/3/1
f 35/3/1 34/3/1 33/3/1
f 36/3/1 34/3/1 35/3/1
f 37/1/2 38/1/2 39/1/2
f 39/1/2 38/1/2 40/1/2
f 41/2/2 42/2/2 43/2/2
f 43/2/2 42/2/2 44/2/2
f 45/1/2 46/1/2 47/1/2
f 47/1/2 46/1/2 48/1/2
f 49/2/2 50/2/2 52/2/2
f 52/2/2 50/2/2 53/2/2
f 51/3/2 52/3/2 54/3/2
f 52/3/2 53/3/2 54/3/2
f 54/3/2 53/3/2 55/3/2
f 56/4/2 57/4/2 58/4/2
f 58/4/2 57/4/2 59/4/2
f 56/4/2 58/4/2 60/4/2
f 58/3/2 59/3/2 61/3/2
f 60/4/2 58/4/2 61/4/2
f 56/4/2 60/4/2 62/4/2
f 60/3/2 61/3/2 63/3/2
f 62/4/2 60/4/2 63/4/2
f 56/4/2 62/4/2 65/4/2
f 62/3/2 63/3/2 66/3/2
f 65/4/2 62/4/2 66/4/2
f 64/3/2 65/3/2 67/3/2
f 65/3/2 66/3/2 67/3/2
f 61/3/2 59/3/2 68/3/2
f 67/3/2 66/3/2 68/3/2
f 63/3/2 61/3/2 68/3/2
f 66/3/2 63/3/2 68/3/2
f 72/3/3 70/3/3 69/3/3
f 74/3/3 72/3/3 71/3/3
f 75/3/3 74/3/3 73/3/3
f 76/3/3 72/3/3 74/3/3
f 76/3/3 74/3/3 75/3/3
f 77/3/3 72/3/3 76/3/3
f 78/3/3 70/3/3 72/3/3
f 78/3/3 72/3/3 77/3/3
f 82/2/3 80/2/3 79/2/3
f 83/1/3 82/1/3 81/1/3
f 84/2/3 80/2/3 82/2/3
f 84/1/3 82/1/3 83/1/3
f 85/2/3 80/2/3 84/2/3
f 86/2/3 80/2/3 85/2/3
f 90/2/3 88/2/3 87/2/3
f 91/2/3 88/2/3 90/2/3
f 92/1/3 90/1/3 89/1/3
f 93/2/3 91/2/3 90/2/3
f 93/1/3 90/1/3 92/1/3
f 94/2/3 91/2/3 93/2/3
f 95/2/3 91/2/3 94/2/3
f 98/4/3 97/4/3 96/4/3
f 99/4/3 97/4/3 98/4/3
f 100/4/3 98/4/3 96/4/3
f 101/4/3 98/4/3 100/4/3
f 102/4/3 100/4/3 96/4/3
f 104/4/3 103/4/3 102/4/3
f 105/4/3 97/4/3 99/4/3
f 106/4/3 97/4/3 105/4/3
f 106/4/3 105/4/3 104/4/3
f 107/4/3 97/4/3 106/4/3
f 108/4/3 104/4/3 102/4/3
f 108/4/3 106/4/3 104/4/3
f 109/4/3 106/4/3 108/4/3
f 110/4/3 102/4/3 96/4/3
f 110/4/3 108/4/3 102/4/3
f 111/4/3 108/4/3 110/4/3
f 112/4/3 106/4/3 109/4/3
f 113/4/3 106/4/3 112/4/3
f 114/4/3 110/4/3 96/4/3
f 116/4/3 115/4/3 114/4/3
f 119/4/3 114/4/3 96/4/3
f 119/4/3 118/4/3 117/4/3
f 119/4/3 117/4/3 116/4/3
f 119/4/3 116/4/3 114/4/3
f 120/4/3 118/4/3 119/4/3
f 121/4/4 122/4/4 124/4/4
f 122/3/4 123/3/4 125/3/4
f 124/4/4 122/4/4 125/4/4
f 121/4/4 124/4/4 126/4/4
f 124/3/4 125/3/4 127/3/4
f 126/4/4 124/4/4 127/4/4
f 121/4/4 126/4/4 128/4/4
f 126/3/4 127/3/4 129/3/4
f 128/4/4 126/4/4 129/4/4
f 125/3/4 123/3/4 130/3/4
f 129/3/4 127/3/4 130/3/4
f 127/3/4 125/3/4 130/3/4
f 133/4/5 132/4/5 131/4/5
f 134/4/5 132/4/5 133/4/5
f 139/1/5 136/1/5 135/1/5
f 140/1/5 136/1/5 139/1/5
f 141/1/5 138/1/5 137/1/5
f 142/1/5 138/1/5 141/1/5
f 151/2/5 144/2/5 143/2/5
f 152/2/5 144/2/5 151/2/5
f 153/2/5 146/2/5 145/2/5
f 154/2/5 146/2/5 153/2/5
f 155/2/5 148/2/5 147/2/5
f 156/2/5 148/2/5 155/2/5
f 157/2/5 150/2/5 149/2/5
f 158/2/5 150/2/5 157/2/5
f 161/3/5 160/3/5 159/3/5
f 162/3/5 160/3/5 161/3/5
f 167/3/5 164/3/5 163/3/5
f 168/3/5 164/3/5 167/3/5
f 169/3/5 166/3/5 165/3/5
f 170/3/5 166/3/5 169/3/5
f 173/3/5 172/3/5 171/3/5
f 174/3/5 172/3/5 173/3/5
f 175/2/6 176/2/6 179/2/6
f 179/2/6 176/2/6 180/2/6
f 177/2/6 178/2/6 181/2/6
f 181/2/6 178/2/6 182/2/6
f 183/3/6 184/3/6 185/3/6
f 185/3/6 184/3/6 186/3/6
