# MagicaVoxel @ Ephtracy

# group
o 

# material
mtllib player-5.mtl
usemtl palette

# normals
vn -1 0 0
vn 1 0 0
vn 0 0 1
vn 0 0 -1
vn 0 -1 0
vn 0 1 0

# texcoords
vt 0.943359 0.5
vt 0.947266 0.5
vt 0.951172 0.5
vt 0.955078 0.5
vt 0.958984 0.5
vt 0.970703 0.5
vt 0.974609 0.5

# verts
v -0.2 0.1 0.6
v -0.2 0.1 -0.2
v -0.2 0.4 0.6
v -0.2 0.4 -0.2
v -0.2 0.6 0.6
v -0.2 0.6 -0.2
v -0.2 1.8 0.6
v -0.2 1.8 -0.2
v 1.2 0.1 0.6
v 1.2 0.1 -0.2
v 1.2 0.4 0.6
v 1.2 0.4 -0.2
v 1.2 0.6 0.6
v 1.2 0.6 -0.2
v 1.2 1.8 0.6
v 1.2 1.8 -0.2
v -0.2 0.1 0.6
v -0.2 0.4 0.6
v -0.2 0.6 0.6
v -0.2 1.8 0.6
v -7.45058e-009 1.6 0.6
v -7.45058e-009 1.7 0.6
v -7.45058e-009 1.8 0.6
v 0.2 1.5 0.6
v 0.2 1.6 0.6
v 0.2 1.7 0.6
v 0.3 0.4 0.6
v 0.3 0.6 0.6
v 0.3 1.4 0.6
v 0.3 1.5 0.6
v 0.3 1.6 0.6
v 0.4 0.4 0.6
v 0.4 0.6 0.6
v 0.6 0.4 0.6
v 0.6 0.6 0.6
v 0.7 0.4 0.6
v 0.7 0.6 0.6
v 0.7 1.4 0.6
v 0.7 1.5 0.6
v 0.7 1.6 0.6
v 0.8 1.5 0.6
v 0.8 1.6 0.6
v 0.8 1.7 0.6
v 1 1.6 0.6
v 1 1.7 0.6
v 1 1.8 0.6
v 1.2 0.1 0.6
v 1.2 0.4 0.6
v 1.2 0.6 0.6
v 1.2 1.8 0.6
v -0.2 0.1 -0.2
v -0.2 0.4 -0.2
v -0.2 0.6 -0.2
v -0.2 1.8 -0.2
v 1.2 0.1 -0.2
v 1.2 0.4 -0.2
v 1.2 0.6 -0.2
v 1.2 1.8 -0.2
v -0.2 0.1 0.6
v 1.2 0.1 0.6
v -0.2 0.1 -0.2
v 1.2 0.1 -0.2
v -0.2 1.8 0.6
v -7.45058e-009 1.8 0.6
v 1 1.8 0.6
v 1.2 1.8 0.6
v -7.45058e-009 1.8 -0.1
v 1 1.8 -0.1
v -0.2 1.8 -0.2
v 1.2 1.8 -0.2

# faces
f 3/7/1 2/7/1 1/7/1
f 4/7/1 2/7/1 3/7/1
f 5/3/1 4/3/1 3/3/1
f 6/3/1 4/3/1 5/3/1
f 7/1/1 6/1/1 5/1/1
f 8/1/1 6/1/1 7/1/1
f 9/7/2 10/7/2 11/7/2
f 11/7/2 10/7/2 12/7/2
f 11/3/2 12/3/2 13/3/2
f 13/3/2 12/3/2 14/3/2
f 13/1/2 14/1/2 15/1/2
f 15/1/2 14/1/2 16/1/2
f 21/1/3 20/1/3 19/1/3
f 22/1/3 20/1/3 21/1/3
f 23/1/3 20/1/3 22/1/3
f 24/1/3 21/1/3 19/1/3
f 25/2/3 22/2/3 21/2/3
f 25/1/3 21/1/3 24/1/3
f 26/6/3 23/6/3 22/6/3
f 26/2/3 22/2/3 25/2/3
f 27/7/3 18/7/3 17/7/3
f 27/3/3 19/3/3 18/3/3
f 28/1/3 24/1/3 19/1/3
f 28/3/3 19/3/3 27/3/3
f 29/1/3 24/1/3 28/1/3
f 30/2/3 25/2/3 24/2/3
f 30/1/3 24/1/3 29/1/3
f 31/6/3 26/6/3 25/6/3
f 31/2/3 25/2/3 30/2/3
f 32/7/3 27/7/3 17/7/3
f 32/4/3 28/4/3 27/4/3
f 33/1/3 29/1/3 28/1/3
f 33/4/3 28/4/3 32/4/3
f 34/7/3 32/7/3 17/7/3
f 34/5/3 33/5/3 32/5/3
f 35/1/3 29/1/3 33/1/3
f 35/5/3 33/5/3 34/5/3
f 36/7/3 34/7/3 17/7/3
f 36/4/3 35/4/3 34/4/3
f 37/1/3 29/1/3 35/1/3
f 37/4/3 35/4/3 36/4/3
f 38/2/3 30/2/3 29/2/3
f 38/1/3 29/1/3 37/1/3
f 39/6/3 31/6/3 30/6/3
f 39/2/3 30/2/3 38/2/3
f 40/6/3 26/6/3 31/6/3
f 40/6/3 31/6/3 39/6/3
f 41/1/3 39/1/3 38/1/3
f 41/1/3 38/1/3 37/1/3
f 41/2/3 40/2/3 39/2/3
f 42/6/3 26/6/3 40/6/3
f 42/2/3 40/2/3 41/2/3
f 43/6/3 23/6/3 26/6/3
f 43/6/3 26/6/3 42/6/3
f 44/1/3 42/1/3 41/1/3
f 44/2/3 43/2/3 42/2/3
f 45/6/3 23/6/3 43/6/3
f 45/2/3 43/2/3 44/2/3
f 46/6/3 23/6/3 45/6/3
f 47/7/3 36/7/3 17/7/3
f 48/3/3 37/3/3 36/3/3
f 48/7/3 36/7/3 47/7/3
f 49/1/3 44/1/3 41/1/3
f 49/3/3 37/3/3 48/3/3
f 49/1/3 41/1/3 37/1/3
f 49/1/3 46/1/3 45/1/3
f 49/1/3 45/1/3 44/1/3
f 50/1/3 46/1/3 49/1/3
f 51/7/4 52/7/4 55/7/4
f 52/3/4 53/3/4 56/3/4
f 55/7/4 52/7/4 56/7/4
f 53/1/4 54/1/4 57/1/4
f 56/3/4 53/3/4 57/3/4
f 57/1/4 54/1/4 58/1/4
f 61/7/5 60/7/5 59/7/5
f 62/7/5 60/7/5 61/7/5
f 63/1/6 64/1/6 67/1/6
f 64/6/6 65/6/6 67/6/6
f 65/1/6 66/1/6 68/1/6
f 67/6/6 65/6/6 68/6/6
f 63/1/6 67/1/6 69/1/6
f 67/1/6 68/1/6 69/1/6
f 68/1/6 66/1/6 70/1/6
f 69/1/6 68/1/6 70/1/6
